<svg width="350" height="137" viewBox="0 0 350 137" fill="none" xmlns="http://www.w3.org/2000/svg">
<path d="M84.4148 137V74.1261V8H62.8593L14 88.2185H59.2667L90.163 89.3025L111 88.2185" stroke="#301606" stroke-width="15"/>
<path d="M322.415 137V74.1261V8H300.859L252 88.2185H297.267L328.163 89.3025L349 88.2185" stroke="#301606" stroke-width="15"/>
<path d="M137.394 59.1383C135.666 78.7005 140.035 91.7419 142.436 95.8174C147.148 112.359 161.162 125.305 170.525 127.462C179.888 129.62 195.733 126.024 210.138 103.009C224.543 79.995 216.62 41.8776 206.537 26.0552C192.23 3.60505 167.518 6.43788 159.002 11.6712C149.639 17.4247 139.555 34.6856 137.394 59.1383Z" stroke="#301606" stroke-width="15"/>
</svg>
