<svg width="367" height="56" viewBox="0 0 367 56" fill="none" xmlns="http://www.w3.org/2000/svg">
<path d="M128.271 2.08H37.5002C31.052 2.08 16.5928 0.86 8.25976 9.5C-2.15657 20.3 1.04307 33.94 3.27514 38.26C5.50721 42.58 8.06369 48.26 14.7599 51.5C20.1169 54.092 33.2841 53.92 37.5002 53.92H42.7084H74.7014L140.175 55H207.138H280.796H332.877C336.35 54.82 347.522 53.32 355.26 49C362.998 44.68 364.622 36.82 365.615 33.4C366.111 29.8 365.712 19.844 359.76 12.5C353.808 5.156 345.208 2.8 338.76 2.08L293.444 1L242.107 2.08H128.271Z" stroke="#46220A" stroke-width="0.5"/>
</svg>
