<svg width="247" height="52" viewBox="0 0 247 52" fill="none" xmlns="http://www.w3.org/2000/svg">
<path d="M86.6903 2H25.6903C21.357 2 11.2903 4 5.69029 12C-1.30971 22 1.19029 31.5 2.69029 35.5C4.19029 39.5 8.19029 44 12.6903 47C16.2903 49.4 22.857 50 25.6903 50H29.1903H50.6903L94.6903 51H139.69H189.19H224.19C226.524 50.8333 232.49 49.5 237.69 45.5C242.89 41.5 245.524 34.1667 246.19 31C246.524 27.6667 246.19 19.3 242.19 12.5C238.19 5.7 228.524 2.66667 224.19 2L197.69 1L163.19 2H86.6903Z" fill="#FFE797" stroke="#46220A"/>
</svg>
