<svg width="30" height="36" viewBox="0 0 30 36" fill="none" xmlns="http://www.w3.org/2000/svg">
<path d="M27.0315 10.3474C27.2435 10.4322 27.4556 10.4746 27.71 10.4746C28.2613 10.4746 28.7702 10.2201 29.1095 9.83848C29.7456 9.07515 29.6607 7.88776 28.8974 7.25165L27.4556 6.06424C27.1163 5.76739 26.6922 5.64016 26.2682 5.64016C25.7169 5.64016 25.208 5.89461 24.8687 6.27627C24.5719 6.65794 24.4022 7.12442 24.4447 7.63331C24.4871 7.93016 24.5719 8.1846 24.6991 8.43905L24.3174 8.90553C22.2819 7.29405 19.8223 6.23387 17.1506 5.8522V4.79202C17.9139 4.45276 18.4652 3.64703 18.4652 2.75647V2.24758C18.4652 1.01777 17.4474 0 16.2176 0H14.0973C12.8675 0 11.8497 1.01777 11.8497 2.24758V2.75647C11.8497 3.64703 12.3586 4.41035 13.1219 4.79202V5.8522C10.2382 6.23387 7.65136 7.46368 5.531 9.24478L4.85248 8.43905C4.9797 8.1846 5.10693 7.93016 5.10693 7.63331C5.14933 7.12442 4.9797 6.65794 4.68285 6.27627C4.3436 5.8522 3.83471 5.64016 3.28341 5.64016C2.85934 5.64016 2.43526 5.80979 2.09601 6.06424L0.654161 7.25165C-0.109171 7.88776 -0.236393 9.07515 0.442124 9.83848C0.781383 10.2626 1.29026 10.4746 1.84156 10.4746C2.0536 10.4746 2.30804 10.4322 2.52008 10.3474L3.41063 11.4076C1.4599 13.9096 0.314901 17.0901 0.314901 20.4827C0.314901 28.6673 6.97285 35.3253 15.1575 35.3253C23.3421 35.3253 30 28.6673 30 20.4827C30 16.8781 28.6854 13.5279 26.5226 10.9411L27.0315 10.3474ZM15.115 33.9682C7.69377 33.9682 1.62952 27.904 1.62952 20.4827C1.62952 17.4718 2.60489 14.7153 4.30118 12.4677C4.386 12.3405 4.51322 12.2133 4.59803 12.0437C5.02211 11.4924 5.48859 11.0259 5.99748 10.5594C6.1247 10.4322 6.25192 10.3474 6.37915 10.2202C8.24507 8.60868 10.5351 7.5485 13.0795 7.16683C13.2491 7.12442 13.4188 7.12442 13.546 7.08201C13.7156 7.08201 13.8852 7.03961 14.0125 7.03961C14.3517 6.99721 14.7334 6.9972 15.0726 6.9972C15.4119 6.9972 15.7936 6.99721 16.1328 7.03961C16.3025 7.03961 16.4721 7.08201 16.5993 7.08201C16.7689 7.08201 16.9386 7.12442 17.0658 7.16683C19.3982 7.50609 21.561 8.48145 23.3421 9.88089C23.4693 9.96571 23.5965 10.0929 23.7237 10.1777C23.851 10.2626 23.9782 10.3898 24.1054 10.517C24.3598 10.7714 24.6567 11.0259 24.9111 11.2803C25.0384 11.4076 25.1232 11.5348 25.2504 11.662C25.3776 11.7892 25.4624 11.9164 25.5472 12.0437C27.4132 14.3761 28.5582 17.3022 28.5582 20.5251C28.6006 27.9464 22.5363 33.9682 15.115 33.9682ZM1.84156 9.54164C1.58712 9.54164 1.33268 9.41441 1.16305 9.24478C0.866196 8.86312 0.908602 8.31183 1.24786 8.01498L2.68971 6.82758C2.85933 6.70035 3.02897 6.61554 3.241 6.61554C3.49545 6.61554 3.74989 6.74275 3.91952 6.91238C4.08915 7.08201 4.13156 7.33646 4.13156 7.54849C4.13156 7.67571 4.08915 7.80293 4.00433 7.93016C3.96193 8.01497 3.87712 8.09978 3.83471 8.14219L2.39286 9.3296C2.30804 9.41442 2.22323 9.45682 2.13842 9.49923C2.0536 9.49923 1.92637 9.54164 1.84156 9.54164ZM4.13156 9.11757L4.76767 9.88089C4.51322 10.1353 4.25878 10.3898 4.00433 10.6866L3.28341 9.83848L4.13156 9.11757ZM12.7826 2.20517C12.7826 1.48425 13.3763 0.932953 14.0549 0.932953H16.1752C16.8962 0.932953 17.4474 1.52665 17.4474 2.20517V2.71406C17.4474 3.09573 17.2778 3.47739 16.981 3.73184C16.7689 3.90147 16.4721 4.02869 16.1752 4.02869H14.0549C13.7156 4.02869 13.4612 3.90147 13.2067 3.73184C12.9099 3.47739 12.7402 3.13814 12.7402 2.75647V2.20517H12.7826ZM14.0549 4.96165H16.1752V5.68257C15.836 5.64017 15.4543 5.64016 15.115 5.64016C14.7758 5.64016 14.3941 5.64017 14.0549 5.68257V4.96165ZM25.0384 9.49923L25.3776 9.11757L26.2258 9.83848L25.8441 10.2626C25.5896 9.96571 25.3352 9.71127 25.0384 9.49923ZM28.3461 9.20237C28.1765 9.41441 27.922 9.49923 27.6676 9.49923C27.5828 9.49923 27.4556 9.49923 27.3708 9.45682C27.2859 9.41441 27.2011 9.37201 27.1163 9.28719L25.6745 8.0998C25.5897 8.01498 25.5472 7.97257 25.5048 7.88776C25.42 7.76054 25.3776 7.6333 25.3776 7.50608C25.3776 7.29405 25.42 7.0396 25.5896 6.86997C25.7593 6.65794 26.0137 6.57313 26.2682 6.57313C26.4802 6.57313 26.6922 6.65794 26.8195 6.78517L28.2613 7.97257C28.6006 8.31182 28.643 8.86312 28.3461 9.20237Z" fill="#301606"/>
<path d="M16.5142 8.9479C16.0477 8.9055 15.5812 8.86308 15.1147 8.86308C14.6482 8.86308 14.1818 8.9055 13.7153 8.9479C7.94788 9.62642 3.49512 14.5457 3.49512 20.4827C3.49512 26.8862 8.71121 32.1023 15.1147 32.1023C21.5182 32.1023 26.7343 26.8862 26.7343 20.4827C26.7767 14.5457 22.2815 9.66883 16.5142 8.9479ZM15.1147 30.7877C9.43214 30.7877 4.85215 26.1653 4.85215 20.5251C4.85215 14.8849 9.47454 10.2625 15.1147 10.2625C20.7973 10.2625 25.3773 14.8849 25.3773 20.5251C25.3773 26.1653 20.7973 30.7877 15.1147 30.7877Z" fill="#301606"/>
<path d="M15.116 13.9944C15.4977 13.9944 15.7945 13.6975 15.7945 13.3159V11.1531C15.7945 10.7714 15.4977 10.4746 15.116 10.4746C14.7343 10.4746 14.4375 10.7714 14.4375 11.1531V13.3159C14.4375 13.6551 14.7343 13.9944 15.116 13.9944Z" fill="#301606"/>
<path d="M15.116 27.0134C14.7343 27.0134 14.4375 27.3103 14.4375 27.692V29.8547C14.4375 30.2364 14.7343 30.5332 15.116 30.5332C15.4977 30.5332 15.7945 30.2364 15.7945 29.8547V27.692C15.7945 27.3527 15.4977 27.0134 15.116 27.0134Z" fill="#301606"/>
<path d="M11.0427 12.0437C10.8731 11.7044 10.449 11.6196 10.1098 11.7892C9.7705 11.9588 9.68569 12.3829 9.85532 12.7222L10.9579 14.5881C11.0851 14.8001 11.2972 14.9274 11.5516 14.9274C11.6788 14.9274 11.7637 14.885 11.8909 14.8426C12.2301 14.6729 12.3149 14.2488 12.1453 13.9096L11.0427 12.0437Z" fill="#301606"/>
<path d="M19.3132 26.4198C19.1436 26.0805 18.7195 25.9957 18.3803 26.1653C18.041 26.3349 17.9562 26.759 18.1258 27.0983L19.2284 28.9642C19.3556 29.1762 19.5677 29.3035 19.8221 29.3035C19.9493 29.3035 20.0342 29.261 20.1614 29.2186C20.5006 29.049 20.5855 28.6249 20.4158 28.2857L19.3132 26.4198Z" fill="#301606"/>
<path d="M9.22061 16.3268L7.35469 15.2242C7.01543 15.0546 6.63376 15.1394 6.42173 15.4786C6.2521 15.8179 6.33692 16.1996 6.67617 16.4116L8.54209 17.5142C8.66931 17.5566 8.75413 17.599 8.88135 17.599C9.1358 17.599 9.34783 17.4718 9.47505 17.2597C9.64468 16.9205 9.55987 16.4964 9.22061 16.3268Z" fill="#301606"/>
<path d="M23.5966 24.5962L21.7307 23.4936C21.3914 23.324 21.0097 23.4088 20.7977 23.748C20.6281 24.0873 20.7129 24.469 21.0521 24.681L22.9181 25.7836C23.0453 25.826 23.1301 25.8684 23.2573 25.8684C23.5118 25.8684 23.7238 25.7412 23.851 25.5292C24.0207 25.1899 23.8934 24.8082 23.5966 24.5962Z" fill="#301606"/>
<path d="M8.58426 20.5251C8.58426 20.1435 8.28741 19.8466 7.90574 19.8466H5.74297C5.36131 19.8466 5.06445 20.1435 5.06445 20.5251C5.06445 20.9068 5.36131 21.2036 5.74297 21.2036H7.90574C8.28741 21.2036 8.58426 20.8644 8.58426 20.5251Z" fill="#301606"/>
<path d="M24.4878 19.8466H22.325C21.9433 19.8466 21.6465 20.1435 21.6465 20.5251C21.6465 20.9068 21.9433 21.2036 22.325 21.2036H24.4878C24.8694 21.2036 25.1663 20.9068 25.1663 20.5251C25.1663 20.1435 24.8694 19.8466 24.4878 19.8466Z" fill="#301606"/>
<path d="M8.54209 23.536L6.67617 24.6386C6.33692 24.8083 6.2521 25.2323 6.42173 25.5716C6.54895 25.7836 6.76099 25.9109 7.01543 25.9109C7.14266 25.9109 7.22747 25.8684 7.35469 25.826L9.22061 24.7235C9.55987 24.5538 9.64468 24.1297 9.47505 23.7905C9.26302 23.4512 8.88135 23.324 8.54209 23.536Z" fill="#301606"/>
<path d="M20.7547 17.2597C20.8819 17.4718 21.0939 17.599 21.3484 17.599C21.4756 17.599 21.5604 17.5566 21.6876 17.5142L23.5536 16.4116C23.8928 16.242 23.9776 15.8179 23.808 15.4786C23.6384 15.1394 23.2143 15.0546 22.8751 15.2242L21.0091 16.3268C20.7123 16.4964 20.5851 16.9205 20.7547 17.2597Z" fill="#301606"/>
<path d="M11.8499 26.1653C11.5106 25.9957 11.1289 26.0805 10.9169 26.4198L9.81431 28.2857C9.64468 28.6249 9.72949 29.0066 10.0688 29.2186C10.196 29.261 10.2808 29.3035 10.408 29.3035C10.6625 29.3035 10.8745 29.1762 11.0017 28.9642L12.1043 27.0983C12.3163 26.759 12.1891 26.3349 11.8499 26.1653Z" fill="#301606"/>
<path d="M18.3803 14.8426C18.5075 14.885 18.5923 14.9274 18.7195 14.9274C18.974 14.9274 19.186 14.8001 19.3132 14.5881L20.4158 12.7222C20.5855 12.3829 20.5006 12.0013 20.1614 11.7892C19.8221 11.6196 19.4405 11.7044 19.2284 12.0437L18.1258 13.9096C17.9562 14.2488 18.041 14.6729 18.3803 14.8426Z" fill="#301606"/>
<path d="M21.5618 14.5457C21.3922 14.3761 21.1377 14.3337 20.9257 14.4609L15.0311 18.3199C13.8861 18.3624 12.9531 19.3377 12.9531 20.4827C12.9531 21.6701 13.9285 22.6455 15.1159 22.6455C16.2609 22.6455 17.1939 21.7549 17.2787 20.6523L21.5618 15.1394C21.7314 14.9698 21.689 14.7153 21.5618 14.5457ZM15.1159 21.3309C14.6494 21.3309 14.3102 20.9492 14.3102 20.5251C14.3102 20.1011 14.6918 19.7194 15.1159 19.7194C15.5824 19.7194 15.9216 20.1011 15.9216 20.5251C15.9216 20.9492 15.5824 21.3309 15.1159 21.3309ZM17.0242 19.4649C16.8546 19.1681 16.6001 18.8713 16.3033 18.7016L19.0598 16.9205L17.0242 19.4649Z" fill="#301606"/>
</svg>
