<svg width="32" height="32" viewBox="0 0 32 32" fill="none" xmlns="http://www.w3.org/2000/svg">
<path d="M15.7561 31.5122C24.458 31.5122 31.5122 24.4579 31.5122 15.7561C31.5122 7.05424 24.458 0 15.7561 0C7.05425 0 0 7.05424 0 15.7561C0 24.4579 7.05425 31.5122 15.7561 31.5122Z" fill="url(#paint0_linear)"/>
<path d="M21.3352 11.5123C22.008 11.5123 22.5533 10.9669 22.5533 10.2942C22.5533 9.62151 22.008 9.07617 21.3352 9.07617C20.6625 9.07617 20.1172 9.62151 20.1172 10.2942C20.1172 10.9669 20.6625 11.5123 21.3352 11.5123Z" fill="white"/>
<path d="M15.9129 10.6479C13.0839 10.6479 10.7656 12.9662 10.7656 15.7952C10.7656 18.6242 13.0839 20.9425 15.9129 20.9425C18.7419 20.9425 21.0601 18.6242 21.0601 15.7952C21.0601 12.9269 18.7419 10.6479 15.9129 10.6479ZM15.9129 19.0565C14.1054 19.0565 12.6124 17.5633 12.6124 15.7559C12.6124 13.9485 14.1054 12.4554 15.9129 12.4554C17.7203 12.4554 19.2134 13.9485 19.2134 15.7559C19.2134 17.6026 17.7203 19.0565 15.9129 19.0565Z" fill="white"/>
<path d="M19.9995 26.2076H11.6695C8.21184 26.2076 5.38281 23.3785 5.38281 19.9208V11.5909C5.38281 8.13323 8.21184 5.3042 11.6695 5.3042H19.9995C23.4571 5.3042 26.2862 8.13323 26.2862 11.5909V19.9208C26.2469 23.4178 23.4571 26.2076 19.9995 26.2076ZM11.6695 7.30809C9.31202 7.30809 7.34741 9.2334 7.34741 11.6302V19.9601C7.34741 22.3176 9.27272 24.2822 11.6695 24.2822H19.9995C22.357 24.2822 24.3216 22.3569 24.3216 19.9601V11.6302C24.3216 9.27269 22.3963 7.30809 19.9995 7.30809H11.6695Z" fill="white"/>
<defs>
<linearGradient id="paint0_linear" x1="2.33532" y1="29.2108" x2="36.3922" y2="-4.84608" gradientUnits="userSpaceOnUse">
<stop offset="0.0011048" stop-color="#FBE18A"/>
<stop offset="0.2094" stop-color="#FCBB45"/>
<stop offset="0.3765" stop-color="#F75274"/>
<stop offset="0.5238" stop-color="#D53692"/>
<stop offset="0.7394" stop-color="#8F39CE"/>
<stop offset="1" stop-color="#5B4FE9"/>
</linearGradient>
</defs>
</svg>
