<svg width="30" height="41" viewBox="0 0 30 41" fill="none" xmlns="http://www.w3.org/2000/svg">
<path d="M5.37944 4.84634H2.18085C0.969267 4.84634 0 5.8156 0 7.02719V38.8191C0 40.0307 0.969267 41 2.18085 41H27.5272C28.7388 41 29.708 40.0307 29.708 38.8191V7.02719C29.708 5.8156 28.7388 4.84634 27.5272 4.84634H24.3286C24.2801 3.63475 23.3593 2.71395 22.1962 2.71395H20.1123C19.8215 1.16312 18.4645 0 16.8652 0H13.3759C11.7281 0 10.3712 1.16312 10.1288 2.71395H7.56029C6.39717 2.71395 5.47636 3.63475 5.37944 4.84634ZM24.1832 8.14184H25.734V36.2021H3.87707V8.14184H5.47636C5.76714 9.06264 6.54255 9.69267 7.51182 9.69267H22.1478C23.117 9.74113 23.9409 9.06264 24.1832 8.14184ZM28.1087 6.97872V38.7707C28.1087 39.1099 27.818 39.4007 27.4787 39.4007H2.13238C1.79314 39.4007 1.50237 39.1099 1.50237 38.7707V6.97872C1.50237 6.63948 1.79314 6.3487 2.13238 6.3487H5.33097V6.54255H3.05319C2.61702 6.54255 2.27778 6.8818 2.27778 7.31797V36.9291C2.27778 37.3652 2.61702 37.7045 3.05319 37.7045H26.5095C26.9456 37.7045 27.2849 37.3652 27.2849 36.9291V7.31797C27.2849 6.8818 26.9456 6.54255 26.5095 6.54255H24.2801V6.3487H27.4787C27.8664 6.39717 28.1087 6.68794 28.1087 6.97872ZM6.93026 4.94327C6.93026 4.55556 7.17258 4.21632 7.51182 4.21632H10.8073C11.2435 4.21632 11.5827 3.87707 11.5827 3.4409V3.24705C11.5827 2.27778 12.3582 1.50237 13.3274 1.50237H16.8168C17.786 1.50237 18.5615 2.27778 18.5615 3.24705V3.4409C18.5615 3.87707 18.9007 4.21632 19.3369 4.21632H22.1478C22.487 4.21632 22.7293 4.55556 22.7293 4.94327V5.57329V7.41489C22.7293 7.80259 22.487 8.14184 22.1478 8.14184H7.51182C7.17258 8.14184 6.93026 7.80259 6.93026 7.41489V5.57329V4.94327Z" fill="#301606"/>
<path d="M14.685 6.20332C15.9451 6.20332 16.9628 5.1856 16.9628 3.92555C16.9628 2.6655 15.9451 1.64777 14.685 1.64777C13.425 1.64777 12.4072 2.6655 12.4072 3.92555C12.4072 5.1856 13.425 6.20332 14.685 6.20332ZM14.685 3.1986C15.0727 3.1986 15.412 3.53784 15.412 3.92555C15.412 4.31326 15.0727 4.6525 14.685 4.6525C14.2973 4.6525 13.9581 4.31326 13.9581 3.92555C13.9581 3.53784 14.2973 3.1986 14.685 3.1986Z" fill="#301606"/>
<path d="M5.1377 14.0059C5.1377 14.4421 5.47693 14.7814 5.9131 14.7814H23.4084C23.8445 14.7814 24.1838 14.4421 24.1838 14.0059C24.1838 13.5698 23.8445 13.2305 23.4084 13.2305H5.9131C5.47693 13.2305 5.1377 13.5698 5.1377 14.0059Z" fill="#301606"/>
<path d="M16.4297 18.6099H5.9131C5.47693 18.6099 5.1377 18.9492 5.1377 19.3854C5.1377 19.8215 5.47693 20.1608 5.9131 20.1608H16.4297C16.8658 20.1608 17.2051 19.8215 17.2051 19.3854C17.2051 18.9492 16.8174 18.6099 16.4297 18.6099Z" fill="#301606"/>
<path d="M16.4297 24.474H5.9131C5.47693 24.474 5.1377 24.8132 5.1377 25.2494C5.1377 25.6856 5.47693 26.0248 5.9131 26.0248H16.4297C16.8658 26.0248 17.2051 25.6856 17.2051 25.2494C17.2051 24.8132 16.8174 24.474 16.4297 24.474Z" fill="#301606"/>
<path d="M16.4297 30.3866H5.9131C5.47693 30.3866 5.1377 30.7258 5.1377 31.162C5.1377 31.5981 5.47693 31.9374 5.9131 31.9374H16.4297C16.8658 31.9374 17.2051 31.5981 17.2051 31.162C17.2051 30.7258 16.8174 30.3866 16.4297 30.3866Z" fill="#301606"/>
<path d="M22.1968 16.8653L20.2098 18.9008L19.6767 18.1738C19.4344 17.8346 18.9498 17.7376 18.6105 18.0284C18.2713 18.2707 18.1744 18.7554 18.4651 19.0946L19.5313 20.597C19.6767 20.7908 19.8706 20.8878 20.1129 20.8878H20.1614C20.3552 20.8878 20.5975 20.7908 20.7429 20.6454L23.3599 17.9315C23.6507 17.6407 23.6507 17.1076 23.3599 16.8168C22.9722 16.5261 22.4876 16.5745 22.1968 16.8653Z" fill="#301606"/>
<path d="M22.1968 23.0201L20.2098 25.0556L19.6767 24.3286C19.4344 23.9894 18.9498 23.8925 18.6105 24.1832C18.2713 24.4256 18.1744 24.9102 18.4651 25.2494L19.5313 26.7518C19.6767 26.9457 19.8706 27.0426 20.1129 27.0426H20.1614C20.3552 27.0426 20.5975 26.9456 20.7429 26.8003L23.3599 24.0863C23.6507 23.7955 23.6507 23.2624 23.3599 22.9717C22.9722 22.6809 22.4876 22.7293 22.1968 23.0201Z" fill="#301606"/>
<path d="M22.1968 29.175L20.2098 31.2104L19.6767 30.4835C19.4344 30.1442 18.9498 30.0473 18.6105 30.3381C18.2713 30.5804 18.1744 31.065 18.4651 31.4043L19.5313 32.9066C19.6767 33.1005 19.8706 33.1974 20.1129 33.1974H20.1614C20.3552 33.1974 20.5975 33.1005 20.7429 32.9551L23.3599 30.2412C23.6507 29.9504 23.6507 29.4173 23.3599 29.1265C22.9722 28.8842 22.4876 28.8842 22.1968 29.175Z" fill="#301606"/>
</svg>
