<svg width="37" height="41" viewBox="0 0 37 41" fill="none" xmlns="http://www.w3.org/2000/svg">
<path d="M11.7221 17.5557C5.28322 17.5557 0 22.8389 0 29.2779C0 35.7168 5.28322 41 11.7221 41C16.8403 41 21.1879 37.698 22.7839 33.1302C23.5544 33.1852 24.3248 33.1852 24.8752 33.1852C28.4524 33.1852 36.8175 32.8 36.8175 29.2779C36.8175 29.2779 36.8175 29.2779 36.8175 29.2228V24.7101V24.4899C36.8175 24.3799 36.8725 24.2698 36.8725 24.1597C36.8725 24.0497 36.8725 23.9396 36.8175 23.8295V19.9772C36.8175 19.8671 36.8725 19.7571 36.8725 19.647C36.8725 19.5369 36.8725 19.4268 36.8175 19.3168V15.0242C36.8175 14.9141 36.8725 14.804 36.8725 14.694C36.8725 14.5289 36.8174 14.3087 36.7624 14.1436C36.8174 13.9785 36.8175 13.8134 36.8175 13.6483C36.8175 13.6483 36.8175 13.6483 36.8175 13.5933V8.86041C36.8175 8.75034 36.8725 8.64027 36.8725 8.5302C36.8725 8.42013 36.8725 8.31006 36.8175 8.2V3.90739C36.8175 3.79732 36.8725 3.68725 36.8725 3.57718C36.8725 3.41208 36.8174 3.19195 36.7624 3.02685C36.6523 2.64161 36.4322 2.36644 36.1571 2.14631C33.7356 0.0550302 25.9208 0 24.8752 0C23.8295 0 16.0698 0.0550302 13.5933 2.14631C13.3181 2.31141 13.0429 2.64161 12.9879 3.02685C12.9329 3.19195 12.8779 3.35705 12.8779 3.57718C12.8779 3.68725 12.8779 3.79732 12.9329 3.90739V8.2C12.9329 8.31006 12.8779 8.42013 12.8779 8.5302C12.8779 8.64027 12.8779 8.75034 12.9329 8.86041V13.5933C12.9329 13.5933 12.9329 13.5933 12.9329 13.6483C12.9329 13.8134 12.9329 13.9785 12.9879 14.1436C12.9329 14.3087 12.8779 14.4738 12.8779 14.694C12.8779 14.804 12.8779 14.9141 12.9329 15.0242V17.5557C12.4926 17.6107 12.1074 17.5557 11.7221 17.5557ZM35.4966 29.1678C35.4966 29.2228 35.4966 29.2228 35.4966 29.2779C35.4966 29.2779 35.4966 29.2778 35.4966 29.3329C35.4416 30.6537 30.7087 31.6993 24.8752 31.6993C24.3248 31.6993 23.7194 31.6993 23.1691 31.6443C23.3342 30.8738 23.3893 30.1034 23.3893 29.2779C23.3893 29.0577 23.3893 28.8376 23.3893 28.6725C23.9396 28.6725 24.4349 28.6725 24.8752 28.6725C27.5718 28.6725 32.9651 28.4523 35.4966 26.8564V29.1678ZM35.4966 24.7101C35.4966 24.7651 35.4966 24.7651 35.4966 24.8201C35.4966 24.8201 35.4966 24.8201 35.4966 24.8752C35.4416 26.196 30.7087 27.2416 24.8752 27.2416C24.3248 27.2416 23.7745 27.2416 23.2242 27.1866C23.004 25.9208 22.5638 24.7651 21.9584 23.7195C23.0591 23.7745 24.0497 23.8295 24.8201 23.8295C27.5168 23.8295 32.9101 23.6094 35.4416 22.0134V24.7101H35.4966ZM35.4966 13.6483C35.4966 13.7033 35.4966 13.7034 35.4966 13.7584C35.4966 13.7584 35.4966 13.7584 35.4966 13.8134C35.4416 15.1342 30.7087 16.1799 24.8752 16.1799C19.0967 16.1799 14.3638 15.1342 14.2537 13.8134V13.7584V13.7034V10.9517C16.7852 12.5476 22.1785 12.7678 24.8752 12.7678C27.5718 12.7678 32.9651 12.5476 35.4966 10.9517V13.6483ZM24.8752 1.87114C30.8738 1.87114 34.6161 2.97182 35.2765 3.68726C34.6711 4.40269 30.9289 5.50336 24.8752 5.50336C18.8765 5.50336 15.1342 4.40269 14.4738 3.68726C15.1342 3.02685 18.8765 1.87114 24.8752 1.87114ZM24.8752 7.26444C25.8107 7.26444 32.5248 7.2094 35.4966 5.55839V8.6953C35.4966 8.75033 35.4966 8.75034 35.4966 8.80537C35.4966 8.80537 35.4966 8.80537 35.4966 8.86041C35.4416 10.1812 30.7087 11.2268 24.8752 11.2268C19.0967 11.2268 14.3638 10.1812 14.2537 8.86041V8.80537V8.75033V5.61343C17.2255 7.2094 23.9396 7.26444 24.8752 7.26444ZM24.8752 18.2711C25.8107 18.2711 32.5248 18.2161 35.4966 16.5651V19.702C35.4966 19.757 35.4966 19.757 35.4966 19.8121C35.4966 19.8121 35.4966 19.8121 35.4966 19.8671C35.4416 21.1879 30.7087 22.2336 24.8752 22.2336C23.4993 22.2336 22.1785 22.1785 20.9128 22.0685C19.2617 19.9772 16.9503 18.4362 14.2537 17.8309V16.5651C17.2255 18.2161 23.9396 18.2711 24.8752 18.2711ZM21.9033 29.2779C21.9033 34.8913 17.3356 39.5141 11.6671 39.5141C6.0537 39.5141 1.43086 34.9463 1.43086 29.2779C1.43086 23.6644 5.99866 19.0416 11.6671 19.0416C17.3356 19.0416 21.9033 23.6644 21.9033 29.2779Z" fill="#301606"/>
<path d="M3.79785 29.2779C3.79785 33.6255 7.31999 37.2027 11.6676 37.2027C16.0153 37.2027 19.5925 33.6805 19.5925 29.2779C19.5925 24.9302 16.0703 21.4081 11.6676 21.4081C7.37503 21.4081 3.79785 24.9302 3.79785 29.2779ZM18.6019 29.2779C18.6019 33.0752 15.52 36.1571 11.7227 36.1571C7.92535 36.1571 4.84347 33.0752 4.84347 29.2779C4.84347 25.4805 7.92535 22.3987 11.7227 22.3987C15.52 22.3987 18.6019 25.4805 18.6019 29.2779Z" fill="#301606"/>
<path d="M10.7329 24.3249V25.1504C10.3477 25.3155 9.96241 25.5356 9.68724 25.8658C9.24697 26.3611 9.02686 26.9665 9.02686 27.6269C9.02686 27.9571 9.08188 28.2873 9.24698 28.6175C9.41208 29.0027 9.74229 29.3879 10.1826 29.7181C10.5128 29.9383 10.898 30.1584 11.4483 30.3785C11.8886 30.5436 12.0537 30.7087 12.1637 30.7638C12.2188 30.8188 12.2188 30.8738 12.2738 30.8738C12.2738 30.8738 12.2738 30.9289 12.2738 30.9839C12.2738 31.094 12.2188 31.149 12.1637 31.204C12.0537 31.3141 11.8886 31.3141 11.6685 31.3141C11.1732 31.3141 10.7329 31.149 10.4577 30.9289L10.1826 30.7087C10.0725 30.5987 9.90739 30.5987 9.74229 30.6537C9.57719 30.7087 9.46711 30.8188 9.41207 30.9839L8.97181 32.3047C8.91678 32.5249 8.9718 32.745 9.1369 32.8551L9.30203 32.9651C9.5772 33.1852 9.90739 33.2953 10.2926 33.4604C10.4577 33.5154 10.5678 33.5154 10.7329 33.5705V34.2859C10.7329 34.5611 10.953 34.7812 11.2282 34.7812H12.494C12.7691 34.7812 12.9893 34.5611 12.9893 34.2859V33.4054C13.4295 33.2403 13.8698 32.9651 14.145 32.6349C14.5852 32.1396 14.8054 31.5342 14.8054 30.8738C14.8054 30.5436 14.7503 30.2134 14.6403 29.9383C14.4752 29.498 14.2 29.1128 13.8148 28.7826C13.4846 28.5074 13.0993 28.2873 12.549 28.0671H12.494C11.9436 27.847 11.7235 27.6819 11.6685 27.6269C11.6134 27.5718 11.6134 27.5718 11.6134 27.5718C11.6134 27.5718 11.6134 27.5718 11.6134 27.5168C11.6134 27.4618 11.6134 27.4618 11.6685 27.4067C11.7235 27.3517 11.8886 27.2967 12.0537 27.2967C12.2738 27.2967 12.494 27.3517 12.7141 27.4067C12.8792 27.4618 12.9893 27.5168 13.0993 27.5718L13.3745 27.7369C13.4846 27.792 13.6497 27.847 13.8148 27.792C13.9799 27.7369 14.0349 27.6269 14.0899 27.5168L14.5852 26.251C14.6953 26.0309 14.5852 25.7557 14.3651 25.6457L14.145 25.5356C13.8148 25.3154 13.4295 25.2054 13.0443 25.0953V24.3799C13.0443 24.1047 12.8242 23.8846 12.549 23.8846H11.2832C10.953 23.8295 10.7329 24.0497 10.7329 24.3249ZM11.7235 25.5356V24.8201H11.9987V25.4805C11.9987 25.7557 12.2188 25.9759 12.4389 25.9759C12.8242 26.0309 13.1544 26.0859 13.4295 26.251L13.3195 26.5812C13.2094 26.5262 13.0993 26.4712 12.9893 26.4161C12.6591 26.3061 12.3289 26.251 11.9987 26.251C11.5584 26.251 11.1732 26.3611 10.898 26.6363C10.6779 26.8564 10.5678 27.1316 10.5678 27.4618C10.5678 27.6269 10.6228 27.792 10.6779 27.9571C10.7329 28.1222 10.843 28.2322 11.0081 28.3423C11.2282 28.5624 11.6134 28.7275 12.1637 28.9477C12.604 29.1128 12.9342 29.3329 13.2094 29.498C13.4846 29.7181 13.6497 29.9383 13.7047 30.2134C13.7597 30.3785 13.8148 30.5987 13.8148 30.8188C13.8148 31.204 13.6497 31.5893 13.4295 31.9195C13.1544 32.1946 12.8242 32.4148 12.3839 32.5248C12.1638 32.5799 11.9987 32.8 11.9987 33.0201V33.7906H11.7235V33.1302C11.7235 32.8551 11.5034 32.6349 11.2832 32.6349C11.0631 32.6349 10.843 32.5799 10.6228 32.5248C10.4027 32.4698 10.1825 32.3598 10.0725 32.3047L10.1826 31.9745C10.6228 32.1946 11.1732 32.3597 11.7235 32.3597C12.1638 32.3597 12.549 32.2497 12.8792 31.9745C13.1544 31.6993 13.3195 31.3691 13.3195 30.9839C13.3195 30.8188 13.2644 30.5987 13.2094 30.4886C13.1544 30.3235 13.0443 30.2134 12.9342 30.0483C12.7141 29.8282 12.3839 29.6081 11.8886 29.443C11.3933 29.2779 11.0631 29.1128 10.843 28.8926C10.5678 28.6725 10.3477 28.4524 10.2926 28.2322C10.2376 28.0671 10.1826 27.847 10.1826 27.6269C10.1826 27.2416 10.3477 26.8564 10.5678 26.5812C10.7879 26.306 11.1181 26.1409 11.5034 26.0309C11.6134 25.9758 11.7235 25.7557 11.7235 25.5356Z" fill="#301606"/>
</svg>
