<svg width="25" height="25" viewBox="0 0 25 25" fill="none" xmlns="http://www.w3.org/2000/svg">
<path d="M9.68154 0C4.33504 0 0 4.33507 0 9.68154C0 15.028 4.33504 19.3631 9.68154 19.3631C11.7374 19.3631 13.6441 18.7218 15.2114 17.6295L22.5329 24.9498C22.599 25.0159 22.706 25.0159 22.7687 24.9544L24.148 23.5751C24.2118 23.5113 24.2061 23.402 24.1435 23.3393L16.9176 16.1134C18.4393 14.4038 19.363 12.1509 19.363 9.6815C19.3631 4.33507 15.028 0 9.68154 0ZM9.68154 18.2241C4.96379 18.2241 1.13899 14.3993 1.13899 9.68154C1.13899 4.96379 4.96375 1.13903 9.68154 1.13903C14.3993 1.13903 18.224 4.96379 18.224 9.68154C18.224 14.3993 14.3993 18.2241 9.68154 18.2241Z" fill="#46220A"/>
</svg>
