<svg width="30" height="31" viewBox="0 0 30 31" fill="none" xmlns="http://www.w3.org/2000/svg">
<path d="M23.6391 30.0122H6.32437C5.36109 30.012 4.41057 29.7918 3.54532 29.3684C2.68007 28.945 1.92295 28.3296 1.3317 27.5691C0.740452 26.8086 0.3307 25.9232 0.133697 24.9802C-0.0633054 24.0373 -0.0423546 23.0618 0.194952 22.1282L3.70407 7.80317C3.76727 7.54706 3.91629 7.32031 4.12632 7.1607C4.33634 7.00108 4.59471 6.91821 4.85839 6.92589H24.1932C24.4478 6.91423 24.6991 6.98718 24.9079 7.13335C25.1168 7.27951 25.2713 7.49068 25.3475 7.73391L29.7108 21.7704C30.0091 22.7238 30.0779 23.7342 29.9114 24.7191C29.7448 25.7041 29.3479 26.6358 28.7528 27.4381C28.1674 28.2438 27.3978 28.8979 26.5083 29.3457C25.6187 29.7935 24.635 30.022 23.6391 30.0122ZM5.72413 9.23452L2.38815 22.6823C2.2396 23.2756 2.22769 23.8949 2.35334 24.4935C2.47898 25.0921 2.73889 25.6544 3.11348 26.1379C3.48806 26.6214 3.96753 27.0135 4.51574 27.2848C5.06395 27.556 5.66658 27.6992 6.2782 27.7036H23.593C24.2212 27.7046 24.8406 27.5566 25.4005 27.2716C25.9604 26.9867 26.4446 26.573 26.8135 26.0645C27.193 25.5531 27.4463 24.9592 27.5526 24.3313C27.6589 23.7034 27.6153 23.0593 27.4253 22.4515L23.3621 9.23452H5.72413Z" fill="#46220A"/>
<path d="M19.5759 16.1604C19.2697 16.1604 18.9761 16.0388 18.7596 15.8223C18.5432 15.6059 18.4215 15.3123 18.4215 15.0061V5.77158C18.4215 4.85315 18.0567 3.97234 17.4073 3.32291C16.7578 2.67348 15.877 2.30863 14.9586 2.30863C14.0402 2.30863 13.1593 2.67348 12.5099 3.32291C11.8605 3.97234 11.4956 4.85315 11.4956 5.77158V15.0061C11.4956 15.3123 11.374 15.6059 11.1576 15.8223C10.9411 16.0388 10.6475 16.1604 10.3413 16.1604C10.0352 16.1604 9.74158 16.0388 9.5251 15.8223C9.30863 15.6059 9.18701 15.3123 9.18701 15.0061V5.77158C9.18701 4.24087 9.79509 2.77284 10.8775 1.69046C11.9599 0.608076 13.4279 0 14.9586 0C16.4893 0 17.9573 0.608076 19.0397 1.69046C20.1221 2.77284 20.7302 4.24087 20.7302 5.77158V15.0061C20.7302 15.3123 20.6086 15.6059 20.3921 15.8223C20.1756 16.0388 19.882 16.1604 19.5759 16.1604Z" fill="#46220A"/>
</svg>
