<svg width="44" height="30" viewBox="0 0 44 30" fill="none" xmlns="http://www.w3.org/2000/svg">
<path d="M0.329979 25.5194C0.494975 25.6844 0.659971 25.7394 0.879966 25.7394H13.0897C12.9247 26.5644 12.8697 27.4444 12.8147 28.3793C12.8147 28.5993 12.8697 28.7643 13.0347 28.9293C13.1997 29.0943 13.3647 29.1493 13.5847 29.1493H30.4143C30.7993 29.1493 31.1843 28.8193 31.1843 28.4343C31.1843 28.3243 31.2393 27.2794 30.9643 25.7944H43.229C43.614 25.7944 43.999 25.4644 43.999 25.0794C43.999 24.8044 44.164 18.6446 40.314 15.1246C40.0391 14.8497 39.6541 14.8496 39.3241 15.0696C39.2691 15.1246 34.7592 18.4796 30.5793 15.0696C30.3043 14.8496 29.8643 14.8496 29.5893 15.0696C29.4793 15.1246 28.2693 16.2246 27.2244 18.3696C27.0044 18.2596 26.6744 18.3146 26.4544 18.4796C26.2894 18.6446 21.8895 21.8895 17.7096 18.4796C17.4896 18.3146 17.2146 18.2596 16.9946 18.3696C16.4446 17.2146 15.7296 16.1146 14.6847 15.1246C14.4097 14.8497 14.0247 14.8496 13.6947 15.0696C13.6397 15.1246 9.12979 18.4796 4.94988 15.0696C4.67489 14.8496 4.23491 14.8496 3.95991 15.0696C3.79492 15.2346 0.0549987 18.5346 0 25.0244C0.109997 25.1894 0.164983 25.3544 0.329979 25.5194ZM30.1943 16.6096C34.1542 19.3595 38.2241 17.4346 39.7091 16.5546C41.964 18.9746 42.404 22.6595 42.459 24.1994H30.6343C30.2493 22.6595 29.5893 20.8995 28.3793 19.4145C29.0393 18.0396 29.7543 17.1046 30.1943 16.6096ZM17.3796 19.9645C21.3395 22.7145 25.4094 20.7895 26.8944 19.9095C29.1493 22.3295 29.5893 26.0144 29.6443 27.5543H14.4097C14.6297 23.5394 16.4996 20.9545 17.3796 19.9645ZM4.61991 16.6096C8.57981 19.3595 12.6497 17.4346 14.1347 16.5546C14.9047 17.3796 15.4547 18.3696 15.8946 19.3595C15.1247 20.2945 14.0797 21.8895 13.4197 24.1994H1.64996C1.92496 20.1295 3.79492 17.5446 4.61991 16.6096Z" fill="#301606"/>
<path d="M9.2947 14.3547C11.2197 14.3547 13.0346 13.5847 14.3546 12.2647C14.5195 12.0997 14.7395 11.8797 14.9045 11.6597C15.4545 15.1246 18.4245 17.7646 21.9994 17.7646C23.9243 17.7646 25.7393 16.9946 27.0593 15.6746C28.2142 14.5197 28.8742 13.0897 29.0942 11.5497C30.4142 13.2547 32.5041 14.4097 34.8141 14.4097C36.739 14.4097 38.554 13.6397 39.874 12.3197C41.2489 10.9447 41.9639 9.12979 41.9639 7.25983C41.9639 3.29992 38.719 0.0549979 34.7591 0.0549979C32.8341 0.0549979 31.0192 0.824977 29.6992 2.14495C28.5442 3.29992 27.8842 4.72989 27.6642 6.26985C26.3443 4.56489 24.2543 3.40992 21.9444 3.40992C20.0194 3.40992 18.2045 4.1799 16.8845 5.49987C16.7195 5.66487 16.4995 5.88486 16.3345 6.10486C15.7845 2.63994 12.8146 0 9.23968 0C7.31472 0 5.49976 0.769979 4.17979 2.08995C2.80482 3.46492 2.08984 5.27988 2.08984 7.14983C2.08984 11.1647 5.33479 14.3547 9.2947 14.3547ZM30.7992 3.18992C31.8992 2.08995 33.2741 1.53996 34.8141 1.53996C37.949 1.53996 40.4789 4.0699 40.4789 7.20483C40.4789 8.7448 39.874 10.1198 38.829 11.2197C37.784 12.3197 36.354 12.8697 34.8141 12.8697C31.6792 12.8697 29.1492 10.3398 29.1492 7.20483C29.1492 5.66487 29.7542 4.2349 30.7992 3.18992ZM17.9845 6.59985C19.0845 5.49987 20.4594 4.94988 21.9994 4.94988C25.1343 4.94988 27.6642 7.47982 27.6642 10.6147C27.6642 12.1547 27.0593 13.5297 26.0143 14.6297C24.9693 15.7296 23.5393 16.2796 21.9994 16.2796C18.8645 16.2796 16.3345 13.7497 16.3345 10.6147C16.3345 9.07479 16.8845 7.64482 17.9845 6.59985ZM5.27976 3.18992C6.37974 2.08995 7.75473 1.53996 9.2947 1.53996C12.4296 1.53996 14.9596 4.0699 14.9596 7.20483C14.9596 8.7448 14.3546 10.1198 13.3096 11.2197C12.2646 12.3197 10.8347 12.8697 9.2947 12.8697C6.15977 12.8697 3.6298 10.3398 3.6298 7.20483C3.5748 5.66487 4.17979 4.2349 5.27976 3.18992Z" fill="#301606"/>
</svg>
