<svg width="35" height="35" viewBox="0 0 35 35" fill="none" xmlns="http://www.w3.org/2000/svg">
<path d="M0.637412 15.0938C3.61241 25.9438 13.1062 33.95 24.3062 34.9563C24.5687 35 24.8312 35 25.0499 35C26.0999 35 27.1499 34.7812 28.0687 34.3875C28.3312 34.2562 28.5499 34.1687 28.7687 34.0375C29.2499 33.7312 29.6874 33.3812 30.0812 32.9875L31.0874 31.85C31.3062 31.6312 31.4812 31.3687 31.6562 31.0625C31.9624 30.5812 32.1812 30.0125 32.3124 29.4875C32.7499 27.5625 32.1374 25.55 30.6937 24.2375L28.9437 22.6625C28.2437 22.05 27.3687 21.6125 26.4499 21.3937C26.0562 21.3062 25.7062 21.2625 25.3124 21.2625C23.7812 21.2625 22.3374 21.9187 21.3312 23.0125L20.2812 24.15C19.8874 24.5875 19.5374 25.1125 19.3187 25.6812C15.1624 23.9312 11.7499 20.825 9.69367 16.8438C10.4812 16.5375 11.1374 16.0562 11.7062 15.4437L12.7124 14.3062C13.6749 13.2562 14.1562 11.8562 14.1124 10.4125C14.1124 10.2812 14.0687 10.15 14.0687 10.0187C13.8937 8.74998 13.2812 7.56874 12.3624 6.69374L10.6124 5.11873C9.60616 4.24373 8.33743 3.71875 7.02493 3.71875C6.71868 3.71875 6.45616 3.76248 6.10616 3.80623C5.14366 3.98123 4.22493 4.41875 3.52493 5.03125C3.34993 5.20625 3.17491 5.3375 3.04366 5.46875L2.03742 6.60624C1.90617 6.78124 1.77491 6.91249 1.64366 7.13124C0.506156 8.13749 -0.368828 10.325 0.156172 13.0375C0.287422 13.7375 0.418662 14.3938 0.637412 15.0938ZM2.51866 8.13749L2.56242 8.09375L2.60616 8.04998C2.60616 8.04998 2.64993 8.00623 2.64993 7.96248C2.73743 7.83123 2.86866 7.65624 2.95616 7.56874L4.00617 6.43123C4.09367 6.29998 4.22491 6.21248 4.35616 6.08123C4.92491 5.59998 5.58116 5.29374 6.32491 5.16249C6.58741 5.11874 6.80618 5.07499 7.02493 5.07499C8.03118 5.07499 8.99366 5.46875 9.73741 6.125L11.4874 7.69999C12.2312 8.35624 12.6687 9.23124 12.7999 10.1937C12.7999 10.2812 12.8437 10.4125 12.8437 10.5C12.8874 11.5938 12.5374 12.6437 11.7937 13.4312L10.7874 14.5687C10.3062 15.1375 9.64991 15.5312 8.94991 15.75L8.64366 15.8375C8.46866 15.8812 8.29367 16.0125 8.24992 16.1875C8.16242 16.3625 8.16242 16.5812 8.24992 16.7125L8.38117 17.0187C10.6562 21.5687 14.5062 25.1125 19.2312 26.9937L19.4937 27.125C19.6687 27.1688 19.8437 27.1688 20.0187 27.125C20.1937 27.0375 20.2812 26.9062 20.3687 26.7312L20.4562 26.4688C20.6312 25.9438 20.9374 25.4625 21.2874 25.025L22.2937 23.8875C23.0812 23.0125 24.1749 22.5312 25.3124 22.5312C25.5749 22.5312 25.8812 22.575 26.1437 22.6187C26.8437 22.75 27.4999 23.1 28.0249 23.5812L29.7749 25.1562C30.8687 26.1625 31.3499 27.6937 30.9999 29.1375C30.9124 29.5312 30.7374 29.925 30.5187 30.3187C30.3874 30.5812 30.2124 30.7562 30.0812 30.9312L29.0312 32.0687C28.7249 32.375 28.4187 32.6375 28.0249 32.9C27.8937 32.9875 27.6749 33.075 27.4562 33.1625C26.5374 33.5562 25.4437 33.7313 24.3499 33.6438C13.6749 32.6813 4.61867 25.1125 1.81867 14.7437C1.64367 14.0875 1.51242 13.475 1.38117 12.8625C0.987417 10.5 1.81866 8.74999 2.51866 8.13749Z" fill="#301606"/>
<path d="M34.6756 16.5375C34.6756 7.4375 27.2381 0 18.1381 0C17.3506 0 16.6943 0.656245 16.6943 1.44374C16.6943 2.23124 17.3506 2.88749 18.1381 2.88749C25.6631 2.88749 31.8318 9.01248 31.8318 16.5812C31.8318 17.3687 32.4881 18.025 33.2756 18.025C34.0631 18.025 34.6756 17.325 34.6756 16.5375ZM32.4881 16.5375C32.4881 8.61874 26.0568 2.1875 18.1381 2.1875C17.7006 2.1875 17.3506 1.83748 17.3506 1.39998C17.3506 0.962479 17.7006 0.612484 18.1381 0.612484C26.8881 0.612484 34.0193 7.74373 34.0193 16.4937C34.0193 16.9312 33.6693 17.2812 33.2318 17.2812C32.8381 17.2812 32.4881 16.9312 32.4881 16.5375Z" fill="#301606"/>
<path d="M26.45 16.7125C26.45 17.5 27.1062 18.1562 27.8937 18.1562C28.6812 18.1562 29.3375 17.5 29.3375 16.7125C29.3375 10.4562 24.2625 5.38124 18.0062 5.38124C17.2187 5.38124 16.5625 6.03749 16.5625 6.82499C16.5625 7.61249 17.2187 8.26873 18.0062 8.26873C22.6437 8.22498 26.45 12.0312 26.45 16.7125ZM17.2188 6.78125C17.2188 6.34375 17.5687 5.99372 18.0062 5.99372C23.8687 5.99372 28.6813 10.7625 28.6813 16.6687C28.6813 17.1062 28.3312 17.4562 27.8937 17.4562C27.4562 17.4562 27.1062 17.1062 27.1062 16.6687C27.1062 11.6375 23.0375 7.56874 18.0062 7.56874C17.5687 7.56874 17.2188 7.21875 17.2188 6.78125Z" fill="#301606"/>
</svg>
