<svg width="36" height="36" viewBox="0 0 36 36" fill="none" xmlns="http://www.w3.org/2000/svg">
<path d="M18 0C8.06106 0 0 8.06106 0 18C0 27.9389 8.06571 36 18 36C27.9343 36 36 27.9343 36 18C36 8.06571 27.939 0 18 0ZM18 34.1737C9.07512 34.1737 1.87794 26.9249 1.87794 18.0516C1.87794 9.12676 9.12676 1.92959 18 1.92959C26.9249 1.92959 34.1221 9.17841 34.1221 18.0516C34.1221 26.9249 26.9249 34.1737 18 34.1737ZM17.3427 5.52582C17.1925 5.37559 17.0892 5.12206 17.0892 4.86853C17.0892 4.615 17.1925 4.36147 17.3427 4.21124C17.6995 3.85441 18.3052 3.85441 18.6619 4.21124C18.8122 4.36147 18.9155 4.615 18.9155 4.86853C18.9155 5.12206 18.8122 5.37559 18.6619 5.52582C18.5117 5.67606 18.2582 5.77935 18.0046 5.77935C17.7465 5.831 17.4929 5.72771 17.3427 5.52582ZM12.0704 5.98124C12.2206 6.13147 12.3239 6.385 12.3239 6.63853C12.3239 6.89206 12.2206 7.14559 12.0704 7.29582C11.9202 7.44606 11.6666 7.54935 11.4131 7.54935C11.1596 7.54935 10.9061 7.44606 10.7558 7.29582C10.6056 7.14559 10.5023 6.89206 10.5023 6.63853C10.5023 6.385 10.6056 6.13147 10.7558 5.98124C11.108 5.62441 11.7136 5.62441 12.0704 5.98124ZM7.25353 10.7981C7.40376 10.9484 7.50706 11.2019 7.50706 11.4554C7.50706 11.7089 7.40376 11.9625 7.25353 12.1127C7.05165 12.2629 6.84976 12.3662 6.59624 12.3662C6.34271 12.3662 6.08918 12.2629 5.93894 12.1127C5.78871 11.9625 5.68541 11.7089 5.68541 11.4554C5.68541 11.2019 5.78871 10.9484 5.93894 10.7981C6.29106 10.4413 6.89671 10.4413 7.25353 10.7981ZM5.78406 18.0469C5.78406 18.3005 5.68076 18.554 5.53053 18.7042C5.32865 18.8545 5.12676 18.9578 4.87324 18.9578C4.61971 18.9578 4.41782 18.8545 4.21594 18.7042C4.06571 18.5024 3.96241 18.3005 3.96241 18.0469C3.96241 17.7934 4.06571 17.5399 4.21594 17.3896C4.57276 17.0328 5.17841 17.0328 5.53518 17.3896C5.68076 17.5399 5.78406 17.7934 5.78406 18.0469ZM7.25353 23.9296C7.40376 24.0798 7.50706 24.3334 7.50706 24.5869C7.50706 24.8404 7.40376 25.0939 7.25353 25.2442C7.10329 25.3944 6.84976 25.4977 6.59624 25.4977C6.34271 25.4977 6.08918 25.3944 5.93894 25.2442C5.78871 25.0939 5.68541 24.8404 5.68541 24.5869C5.68541 24.3334 5.78871 24.0798 5.93894 23.9296C6.29106 23.6244 6.89671 23.6244 7.25353 23.9296ZM12.0704 28.7465C12.2206 28.8967 12.3239 29.1502 12.3239 29.4038C12.3239 29.6573 12.2206 29.9108 12.0704 30.0611C11.9202 30.2113 11.6666 30.3146 11.4131 30.3146C11.1596 30.3146 10.9061 30.2113 10.7558 30.0611C10.6056 29.9108 10.5023 29.6573 10.5023 29.4038C10.5023 29.1502 10.6056 28.8967 10.7558 28.7465C11.108 28.3944 11.7136 28.4413 12.0704 28.7465ZM18.662 30.5211C18.8122 30.6714 18.9155 30.9249 18.9155 31.1784C18.9155 31.4319 18.8122 31.6338 18.662 31.8357C18.5118 32.0376 18.2582 32.0892 18.0047 32.0892C17.7512 32.0892 17.4976 31.9859 17.3474 31.8357C17.1972 31.6855 17.0939 31.4319 17.0939 31.1784C17.0939 30.9249 17.1972 30.6714 17.3474 30.5211C17.6995 30.169 18.3052 30.169 18.662 30.5211ZM25.2535 28.7465C25.4038 28.9484 25.5071 29.1502 25.5071 29.4038C25.5071 29.6573 25.4038 29.9108 25.2535 30.0611C25.0516 30.2113 24.8498 30.3146 24.5962 30.3146C24.3427 30.3146 24.1408 30.2113 23.9389 30.0611C23.7887 29.8592 23.6854 29.6573 23.6854 29.4038C23.6854 29.1502 23.7887 28.8967 23.9389 28.7465C24.2911 28.3944 24.8967 28.3944 25.2535 28.7465ZM30.0704 23.9296C30.2206 24.1315 30.3239 24.3334 30.3239 24.5869C30.3239 24.8404 30.2206 25.0939 30.0704 25.2442C29.9202 25.3944 29.6666 25.4977 29.4131 25.4977C29.1596 25.4977 28.9061 25.3944 28.7558 25.2442C28.6056 25.0939 28.5023 24.8404 28.5023 24.5869C28.5023 24.3334 28.6056 24.0798 28.7558 23.9296C29.108 23.6244 29.7136 23.6244 30.0704 23.9296ZM32.0986 18.0469C32.0986 18.3005 31.9953 18.554 31.8451 18.7042C31.6948 18.8545 31.4413 18.9578 31.1878 18.9578C30.9342 18.9578 30.6807 18.8545 30.5305 18.7042C30.3802 18.554 30.2769 18.3005 30.2769 18.0469C30.2769 17.7934 30.3802 17.5399 30.5305 17.3896C30.8873 17.0328 31.4929 17.0328 31.8497 17.3896C31.9953 17.5399 32.0986 17.7934 32.0986 18.0469ZM28.7512 12.1174C28.6009 11.9671 28.4976 11.7136 28.4976 11.4601C28.4976 11.2065 28.6009 10.953 28.7512 10.8028C29.108 10.4459 29.7136 10.4459 30.0704 10.8028C30.2206 11.0046 30.3239 11.2065 30.3239 11.4601C30.3239 11.7136 30.2206 11.9671 30.0704 12.1174C29.9202 12.2676 29.6666 12.3709 29.4131 12.3709C29.1549 12.4225 28.9014 12.3192 28.7512 12.1174ZM25.2535 5.98124C25.4038 6.13147 25.5071 6.385 25.5071 6.63853C25.5071 6.89206 25.4038 7.14559 25.2535 7.29582C25.0516 7.44606 24.8498 7.54935 24.5962 7.54935C24.3427 7.54935 24.1408 7.44606 23.9389 7.29582C23.7887 7.14559 23.6854 6.89206 23.6854 6.63853C23.6854 6.385 23.7887 6.13147 23.9389 5.98124C24.2911 5.62441 24.8967 5.62441 25.2535 5.98124ZM17.0376 18.0469V9.53053C17.0376 9.02347 17.4414 8.61971 17.9484 8.61971C18.4555 8.61971 18.8639 9.02347 18.8639 9.53053V17.0845H23.9859C24.493 17.0845 24.8968 17.4883 24.8968 17.9954C24.8968 18.5024 24.493 18.9062 23.9859 18.9062H18C17.4929 18.9625 17.0376 18.554 17.0376 18.0469Z" fill="#301606"/>
</svg>
