<svg width="30" height="32" viewBox="0 0 30 32" fill="none" xmlns="http://www.w3.org/2000/svg">
<path d="M28.9085 18.524C29.8334 10.488 28.4642 5.4147 25.9945 3.12003L25.9958 3.1187C22.0097 -0.799967 8.54798 -1.37997 3.77915 3.2947C1.63756 5.58137 0.88323 8.93737 0.800564 13.092C0.717897 17.248 0.61973 25.0334 7.64769 27.1454H7.65415L7.64769 30.3707C7.64769 30.3707 7.5999 31.6774 8.40848 31.94C9.33331 32.2494 9.75181 31.6427 12.6284 28.096C17.4385 28.5267 21.1327 27.54 21.5525 27.396C22.5238 27.06 28.0199 26.3094 28.9085 18.524ZM13.1024 25.8267C13.1024 25.8267 10.0579 29.7454 9.11115 30.7627C8.80115 31.0934 8.46144 31.0627 8.46661 30.4067C8.46661 29.976 8.48986 25.052 8.48986 25.052C2.5314 23.2894 2.88273 16.66 2.94731 13.192C3.0119 9.7227 3.62673 6.88137 5.44023 4.96803C9.62394 0.9187 21.4259 1.82403 24.4329 4.74137C28.109 8.10537 26.8005 17.6094 26.8083 17.9334C26.0526 24.432 21.599 24.844 20.7801 25.1254C20.43 25.2454 17.1815 26.108 13.1024 25.8267Z" fill="#8E24AA"/>
<path d="M14.787 5.72949C14.2897 5.72949 14.2897 6.52949 14.787 6.53616C18.6452 6.56683 21.8227 9.34283 21.8576 14.4348C21.8576 14.9722 22.6197 14.9655 22.6132 14.4282H22.6119C22.5706 8.94149 19.1012 5.76016 14.787 5.72949Z" fill="#8E24AA"/>
<path d="M19.8615 13.5907C19.8499 14.1214 20.6107 14.1467 20.6172 13.6094C20.6805 10.584 18.8734 8.09205 15.4776 7.82938C14.9803 7.79205 14.9287 8.59871 15.4247 8.63605C18.3697 8.86671 19.921 10.9414 19.8615 13.5907Z" fill="#8E24AA"/>
<path d="M19.0482 17.0318C18.4101 16.6505 17.7604 16.8878 17.4917 17.2625L16.9299 18.0131C16.6444 18.3945 16.1109 18.3438 16.1109 18.3438C12.2179 17.2811 11.1768 13.0758 11.1768 13.0758C11.1768 13.0758 11.129 12.5065 11.4855 12.2011L12.1882 11.6011C12.5395 11.3131 12.7617 10.6198 12.4039 9.93848C11.448 8.15581 10.8061 7.54115 10.4793 7.06915C10.1357 6.62515 9.61903 6.52515 9.08169 6.82515H9.07007C7.95278 7.49981 6.72957 8.76248 7.12094 10.0625C7.78874 11.4331 9.01582 15.8025 12.927 19.1038C14.765 20.6651 17.6739 22.2651 18.9087 22.6345L18.9203 22.6531C20.1371 23.0718 21.3202 21.7598 21.9519 20.5718V20.5625C22.2321 19.9878 22.1392 19.4438 21.7297 19.0878C21.0038 18.3571 19.9084 17.5505 19.0482 17.0318Z" fill="#8E24AA"/>
<path d="M16.0097 10.8056C17.251 10.8802 17.853 11.5496 17.9175 12.9242C17.9408 13.4616 18.6964 13.4242 18.6732 12.8869C18.5905 11.0922 17.6837 10.0922 16.0511 9.9989C15.5538 9.96823 15.5073 10.7749 16.0097 10.8056Z" fill="#8E24AA"/>
</svg>
