<svg width="30" height="37" viewBox="0 0 30 37" fill="none" xmlns="http://www.w3.org/2000/svg">
<path d="M15.0444 36.0799C23.2988 36.0799 30 29.3787 30 21.1243C30 17.1746 28.4467 13.5799 25.9615 10.9172C27.1598 8.9645 28.6243 6.25739 28.6243 4.79289C28.6243 2.17455 26.4941 0 23.8314 0C21.213 0 19.0385 2.13017 19.0385 4.79289C19.0385 5.36982 19.2604 6.07988 19.571 6.8787C18.1509 6.43491 16.5976 6.16864 15.0444 6.16864C12.2485 6.16864 9.63018 6.92308 7.41124 8.25444C6.70119 7.1006 5.45858 6.30177 3.99408 6.30177C1.77515 6.30177 0 8.07692 0 10.2959C0 11.3166 0.798817 13.003 1.64201 14.4675C0.621302 16.4645 0.0887577 18.7278 0.0887577 21.1243C0.0887577 29.3787 6.78994 36.0799 15.0444 36.0799ZM6.43491 21.8343C6.52367 23.3432 6.8787 24.9408 7.54438 26.4941C6.12426 27.071 4.83728 27.7811 3.77219 28.6243C2.48521 26.6716 1.64201 24.3195 1.50888 21.8343H6.43491ZM8.60947 16.8639C10.3846 17.4408 12.2929 17.7959 14.3343 17.8846V20.4142H7.85503C7.94379 19.1716 8.21006 17.9734 8.60947 16.8639ZM22.2337 20.4142H15.7544V17.929C17.7959 17.8846 19.7485 17.6183 21.568 17.1302C21.9231 18.1509 22.145 19.2604 22.2337 20.4142ZM21.3018 25.784C19.571 25.3402 17.6627 25.074 15.7544 25.0296V21.7899H22.2337C22.145 23.2101 21.7899 24.5414 21.3018 25.784ZM7.85503 21.8343H14.3343V25.074C12.426 25.1627 10.5621 25.4734 8.87574 26.0059C8.29882 24.6746 7.94379 23.2988 7.85503 21.8343ZM14.3343 26.4941V33.5947C13.0473 32.3964 10.9615 30.1331 9.49704 27.2929C10.9615 26.8491 12.6036 26.5828 14.3343 26.4941ZM15.7544 33.5947V26.4497C17.4852 26.4497 19.1716 26.6716 20.7249 27.071C19.2604 30 17.0858 32.3521 15.7544 33.5947ZM15.7544 16.4645V8.5207C17.1746 9.89644 19.571 12.5148 21.0355 15.7544C19.3935 16.1982 17.574 16.4645 15.7544 16.4645ZM14.3343 8.5207V16.4201C12.5148 16.3314 10.7396 16.0207 9.14201 15.4882C10.6065 12.3817 12.9586 9.85206 14.3343 8.5207ZM4.61539 29.7337C5.6361 28.9349 6.78994 28.2692 8.1213 27.7811C8.74261 29.0237 9.54142 30.3107 10.5178 31.5089C11.5385 32.7959 12.5148 33.8166 13.2692 34.5266C9.80769 34.0828 6.74556 32.3077 4.61539 29.7337ZM16.8195 34.5266C17.574 33.8166 18.5503 32.7959 19.571 31.5089C20.5917 30.1775 21.4349 28.8462 22.1006 27.4704C23.4763 27.9586 24.7189 28.5355 25.8284 29.2899C23.6538 32.1302 20.4586 34.0385 16.8195 34.5266ZM26.6272 28.1361C25.4734 27.3373 24.142 26.6716 22.6775 26.1834C23.2544 24.7189 23.5651 23.2544 23.6538 21.7899H28.5799C28.4467 24.142 27.7367 26.2722 26.6272 28.1361ZM23.6538 20.4142C23.5651 19.1716 23.3432 17.929 22.8994 16.6864C24.4083 16.1539 25.7396 15.4438 26.8935 14.6006C27.8698 16.3314 28.4467 18.3284 28.5355 20.4142H23.6538ZM27.2041 4.74851C27.2041 5.72484 26.0947 7.8994 24.9408 9.85206C24.6746 10.2959 24.4527 10.6953 24.1864 11.0947C24.0976 11.2722 23.9645 11.4497 23.8757 11.5828C23.5651 11.0947 23.2101 10.5621 22.8994 10.0296C22.4112 9.23077 21.9231 8.38758 21.5237 7.58876C20.9467 6.39054 20.503 5.32544 20.503 4.74851C20.503 2.88461 22.0118 1.37574 23.8757 1.37574C25.6953 1.37574 27.2041 2.88461 27.2041 4.74851ZM20.4586 8.69823C21.568 10.8284 22.9882 12.9142 23.2544 13.2692C23.3876 13.4467 23.6095 13.5799 23.8314 13.5799C24.0533 13.5799 24.2751 13.4467 24.4083 13.2692C24.497 13.1361 24.8077 12.6923 25.1627 12.1154C25.5178 12.5148 25.8284 12.9142 26.1391 13.358C25.074 14.1568 23.787 14.8225 22.3669 15.3107C21.7012 13.7574 20.7249 12.1598 19.5266 10.6065C18.5947 9.3639 17.6183 8.38757 16.9083 7.63313C18.1509 7.85502 19.3491 8.21006 20.4586 8.69823ZM13.1361 7.67751C12.3817 8.38757 11.4497 9.40829 10.4734 10.6509C9.3639 12.1154 8.43195 13.5799 7.76627 15.0444C7.23373 14.8225 6.74556 14.6006 6.30178 14.3343C7.36686 12.4704 7.89941 11.0947 7.89941 10.2515C7.89941 10.0296 7.89941 9.8077 7.85503 9.5858C9.45266 8.60947 11.2278 7.94378 13.1361 7.67751ZM3.9497 7.72189C4.92604 7.72189 5.76923 8.25444 6.16864 9.05325C6.39053 9.40828 6.47929 9.85206 6.47929 10.2959C6.47929 10.3846 6.47929 10.4734 6.43491 10.6509C6.30177 11.2278 5.90237 12.2485 5.10355 13.6243C4.88166 14.0237 4.65976 14.4231 4.39349 14.8669C4.26036 15.0888 4.08284 15.355 3.9497 15.5769C3.68343 15.1775 3.46154 14.8225 3.23965 14.4675C2.929 13.9349 2.66272 13.4911 2.44083 13.0473C1.68639 11.6272 1.37574 10.6953 1.37574 10.2959C1.42012 8.87573 2.52959 7.72189 3.9497 7.72189ZM2.52959 15.932C2.92899 16.5976 3.28402 17.0858 3.37278 17.2189C3.50592 17.3964 3.72781 17.5296 3.9497 17.5296C4.1716 17.5296 4.39349 17.3964 4.52663 17.2189C4.57101 17.1746 5.01479 16.5089 5.59172 15.5769C6.12426 15.8876 6.65681 16.1095 7.23373 16.3757C6.74556 17.7515 6.43491 19.0828 6.39053 20.4142H1.50888C1.59763 18.8166 1.95266 17.3077 2.52959 15.932Z" fill="#301606"/>
<path d="M3.32756 11.8047C3.54946 11.8935 3.77135 11.9378 3.99324 11.9378C5.01395 11.9378 5.85715 11.0946 5.85715 10.0739C5.85715 9.85203 5.81277 9.63014 5.72401 9.40825C5.45774 8.69819 4.74768 8.16565 3.94887 8.16565C2.92816 8.16565 2.08496 9.00885 2.08496 10.0296C2.08496 10.8728 2.57313 11.5384 3.32756 11.8047ZM3.94887 9.18635C4.43703 9.18635 4.83644 9.58576 4.83644 10.0739C4.83644 10.1183 4.83644 10.1627 4.83644 10.2071C4.79206 10.6065 4.48141 10.8728 4.12638 10.9171C4.082 10.9171 4.03762 10.9171 3.99324 10.9171C3.50508 10.9171 3.10567 10.5177 3.10567 10.0296C3.10567 9.58577 3.4607 9.18635 3.94887 9.18635Z" fill="#301606"/>
<path d="M23.8312 6.6568C25.0738 6.6568 26.0502 5.68047 26.0502 4.43787C26.0502 3.19526 25.0738 2.21893 23.8312 2.21893C22.5886 2.21893 21.6123 3.19526 21.6123 4.43787C21.6123 5.68047 22.5886 6.6568 23.8312 6.6568ZM23.8312 3.28402C24.4969 3.28402 25.0295 3.81657 25.0295 4.48225C25.0295 5.14793 24.4969 5.68047 23.8312 5.68047C23.1656 5.68047 22.633 5.14793 22.633 4.48225C22.633 3.81657 23.1656 3.28402 23.8312 3.28402Z" fill="#301606"/>
</svg>
